# xmcd
#
# Track frame offsets:
#	150
#	14345
#	21385
#	51855
#	65250
#	76483
#	92105
#	112698
#	125260
#	138598
#	146543
#	158120
#	171518
#	187840
#	205048
#	228615
#	250728
#	277465
#	293648
#
# Disc length: 4282 seconds
#
# Revision: 1
# Processed by: cddbd v1.4PL0 Copyright (c) Steve Scherf et al.
# Submitted via: audiograbber 1.82.01
#
DISCID=1010b813
DTITLE=Wadih El Safi and Zaki Nassif - Al Anwar Festival
DYEAR=1900
DGENRE=
TTITLE0=Musical Ouverture
TTITLE1=Al Mawal
TTITLE2=Loubnan Ya Ot3et Sama
TTITLE3=Chiddou El Himeh
TTITLE4=Rakset El Abarik
TTITLE5=Boukra El Ared
TTITLE6=Ya Abou El Mijana
TTITLE7=Tallou Hbabna
TTITLE8=Rakset El Tabouleh
TTITLE9=Ghanni Ya Balabel
TTITLE10=Dareb El Ghezlan
TTITLE11=Rakset El Rabih
TTITLE12=Lawayn Ya Marwan
TTITLE13=Este3rad El Mawasam
TTITLE14=Seherna
TTITLE15=El Asifa Wal Rabih
TTITLE16=Bel Saha Tlakayna
TTITLE17=Chou 3ad Baddi Fik
TTITLE18=Dabket Layletna
EXTD=
EXTT0=
EXTT1=
EXTT2=
EXTT3=
EXTT4=
EXTT5=
EXTT6=
EXTT7=
EXTT8=
EXTT9=
EXTT10=
EXTT11=
EXTT12=
EXTT13=
EXTT14=
EXTT15=
EXTT16=
EXTT17=
EXTT18=
PLAYORDER=
